<?xml version="1.0" standalone="no"?>
<!DOCTYPE svg PUBLIC "-//W3C//DTD SVG 20010904//EN"
 "http://www.w3.org/TR/2001/REC-SVG-20010904/DTD/svg10.dtd">
<svg version="1.0" xmlns="http://www.w3.org/2000/svg"
 width="500.000000pt" height="92.000000pt" viewBox="0 0 500.000000 92.000000"
 preserveAspectRatio="xMidYMid meet">

<g transform="translate(0.000000,92.000000) scale(0.100000,-0.100000)"
fill="#000000" stroke="none">
<path d="M1090 750 c188 -203 249 -275 250 -296 0 -12 -62 -91 -162 -204 -89
-101 -155 -180 -148 -175 8 5 82 67 164 139 168 146 205 176 217 176 12 0 147
-116 283 -243 65 -61 117 -103 115 -95 -2 9 -71 90 -154 179 -193 209 -187
202 -176 231 5 13 75 100 155 192 80 92 146 169 146 172 0 3 -77 -63 -170
-145 -94 -82 -182 -152 -196 -155 -33 -9 -28 -12 -223 169 -89 83 -169 152
-178 154 -10 2 25 -43 77 -99z"/>
<path d="M1710 480 c0 -5 6 -10 13 -10 8 0 20 -28 30 -72 45 -187 59 -228 77
-228 19 0 27 21 65 170 9 36 20 71 24 78 4 7 22 -46 41 -118 30 -113 37 -130
55 -130 18 0 25 15 49 118 43 174 46 182 61 182 8 0 15 5 15 10 0 6 -22 10
-50 10 -27 0 -50 -4 -50 -10 0 -5 9 -10 21 -10 17 0 20 -5 16 -22 -3 -13 -16
-67 -28 -121 -12 -54 -26 -94 -29 -90 -6 7 -70 234 -70 248 0 3 -9 5 -19 5
-21 0 -28 -17 -56 -130 -9 -36 -21 -83 -27 -105 l-10 -40 -29 115 c-34 139
-34 140 -9 140 11 0 20 5 20 10 0 6 -25 10 -55 10 -30 0 -55 -4 -55 -10z"/>
<path d="M2215 344 c-27 -81 -56 -149 -62 -151 -28 -11 -11 -23 32 -23 25 0
45 5 45 10 0 6 -9 10 -21 10 -17 0 -19 4 -13 23 21 68 19 67 84 67 65 0 63 1
84 -67 6 -19 4 -23 -13 -23 -12 0 -21 -4 -21 -10 0 -5 25 -10 55 -10 30 0 55
5 55 10 0 6 -6 10 -13 10 -8 0 -33 58 -64 148 -45 131 -53 147 -74 150 -22 2
-27 -7 -74 -144z m115 -36 c0 -4 -22 -8 -50 -8 -27 0 -50 4 -50 8 0 12 37 119
46 134 6 10 54 -109 54 -134z"/>
<path d="M2430 480 c0 -5 6 -10 13 -10 6 0 33 -41 60 -90 38 -72 47 -98 47
-139 0 -48 -2 -51 -25 -51 -14 0 -25 -4 -25 -10 0 -6 28 -10 65 -10 37 0 65 4
65 10 0 6 -9 10 -20 10 -18 0 -20 7 -20 60 0 52 6 71 41 133 22 40 47 77 55
83 23 18 16 24 -31 24 -25 0 -45 -4 -45 -10 0 -5 9 -10 20 -10 19 0 19 -3 -9
-57 -49 -95 -45 -94 -85 -15 -34 67 -35 72 -16 72 11 0 20 5 20 10 0 6 -25 10
-55 10 -30 0 -55 -4 -55 -10z"/>
<path d="M2740 480 c0 -5 7 -10 15 -10 13 0 15 -22 15 -140 0 -118 -2 -140
-15 -140 -8 0 -15 -4 -15 -10 0 -5 20 -10 45 -10 25 0 45 5 45 10 0 6 -7 10
-15 10 -13 0 -15 20 -14 123 l1 122 49 -104 50 -105 26 45 c14 24 38 71 54
104 l29 60 0 -122 c0 -103 -2 -123 -15 -123 -8 0 -15 -4 -15 -10 0 -5 25 -10
55 -10 30 0 55 5 55 10 0 6 -9 10 -20 10 -19 0 -20 7 -20 140 0 133 1 140 20
140 11 0 20 5 20 10 0 6 -17 10 -38 10 -38 0 -38 0 -82 -91 -25 -50 -48 -93
-53 -96 -4 -2 -28 39 -53 91 l-45 96 -40 0 c-21 0 -39 -4 -39 -10z"/>
<path d="M3212 378 c-21 -62 -45 -130 -51 -150 -7 -21 -19 -38 -27 -38 -8 0
-14 -4 -14 -10 0 -5 23 -10 50 -10 28 0 50 5 50 10 0 6 -9 10 -20 10 -23 0
-23 2 -9 53 l10 37 63 0 c63 0 64 -1 75 -31 16 -46 14 -59 -9 -59 -11 0 -20
-4 -20 -10 0 -5 25 -10 55 -10 57 0 65 5 41 24 -7 6 -35 75 -62 154 -42 124
-51 142 -70 142 -19 0 -28 -16 -62 -112z m82 -2 c14 -37 26 -70 26 -72 0 -2
-25 -4 -56 -4 -41 0 -55 3 -51 13 2 6 15 40 27 75 13 34 24 61 26 60 1 -2 14
-34 28 -72z"/>
<path d="M3460 480 c0 -5 7 -10 15 -10 13 0 15 -22 15 -140 0 -118 -2 -140
-15 -140 -8 0 -15 -4 -15 -10 0 -5 23 -10 50 -10 28 0 50 5 50 10 0 6 -7 10
-15 10 -11 0 -15 12 -15 48 0 38 5 53 24 71 l23 22 44 -67 c28 -44 39 -69 31
-72 -30 -10 -7 -22 43 -22 30 0 55 5 55 10 0 6 -8 10 -18 10 -18 0 -122 148
-122 173 0 16 92 107 108 107 7 0 12 5 12 10 0 6 -22 10 -50 10 -48 0 -70 -15
-31 -22 15 -2 6 -17 -50 -78 l-69 -75 0 78 c0 62 3 77 15 77 8 0 15 5 15 10 0
6 -22 10 -50 10 -27 0 -50 -4 -50 -10z"/>
<path d="M3780 480 c0 -5 7 -10 15 -10 13 0 15 -22 15 -140 0 -118 -2 -140
-15 -140 -8 0 -15 -4 -15 -10 0 -6 47 -10 120 -10 l120 0 0 40 c0 29 -4 40
-15 40 -10 0 -15 -10 -15 -30 l0 -31 -67 3 -68 3 -3 63 -3 62 51 0 c43 0 50
-3 50 -20 0 -11 5 -20 10 -20 6 0 10 23 10 50 0 51 -13 67 -23 29 -5 -17 -12
-20 -49 -17 l-43 3 0 60 0 60 62 3 c61 3 62 3 65 -25 2 -17 10 -29 21 -31 14
-3 17 4 17 37 l0 41 -120 0 c-73 0 -120 -4 -120 -10z"/>
<path d="M4080 480 c0 -5 7 -10 15 -10 13 0 15 -22 15 -140 0 -118 -2 -140
-15 -140 -8 0 -15 -4 -15 -10 0 -5 25 -10 55 -10 30 0 55 5 55 10 0 6 -9 10
-20 10 -18 0 -20 7 -20 65 0 64 0 65 28 65 23 0 32 -10 65 -69 37 -68 51 -81
88 -81 24 0 25 17 0 25 -15 4 -81 109 -81 128 0 2 9 7 19 10 10 2 27 17 37 31
23 36 10 95 -26 113 -30 15 -200 18 -200 3z m175 -24 c12 -9 19 -26 19 -49 0
-51 -18 -67 -75 -67 l-49 0 0 65 0 65 43 0 c24 0 52 -6 62 -14z"/>
</g>
</svg>
